<svg xmlns="http://www.w3.org/2000/svg" viewBox="0 0 1549.04 176.6"><defs><style>.cls-1{fill:#f79221;}</style></defs><g id="Layer_2" data-name="Layer 2"><g id="Layer_6" data-name="Layer 6"><path class="cls-1" d="M962.84,37.41H1010a55.55,55.55,0,0,1,10.31,1.09,27.84,27.84,0,0,1,10.54,4.42,25.85,25.85,0,0,1,8.14,9.45q3.25,6.14,3.25,16,0,14.58-9,22.48t-25.73,7.9H969.66v49.29h-6.82Zm6.82,55.5h38.91a31.7,31.7,0,0,0,12.63-2.25,22.75,22.75,0,0,0,8.29-5.82,22.31,22.31,0,0,0,4.5-7.9,28.22,28.22,0,0,0,1.39-8.68,35.22,35.22,0,0,0-.93-7.36,22.6,22.6,0,0,0-3.72-8.22A22.32,22.32,0,0,0,1022.9,46q-5-2.72-13.4-2.72H969.66Z"/><path class="cls-1" d="M1061.26,37.41V148.08h-5.89V37.41Z"/><path class="cls-1" d="M1133.49,132.28h-.31a24.81,24.81,0,0,1-4,6.74,28.56,28.56,0,0,1-6.44,5.65,31.69,31.69,0,0,1-8.6,3.88,37.69,37.69,0,0,1-10.54,1.4q-12.7,0-19.69-5.51t-7-17q0-7,2.79-11.39a21.18,21.18,0,0,1,7-7,30.22,30.22,0,0,1,9.46-3.64,93.28,93.28,0,0,1,10-1.55l9.15-.78a53.34,53.34,0,0,0,10-1.47,12.77,12.77,0,0,0,5.5-2.79,7.91,7.91,0,0,0,2.32-4.57,43.54,43.54,0,0,0,.47-7,14.67,14.67,0,0,0-1.24-6,13.59,13.59,0,0,0-3.88-5,19.12,19.12,0,0,0-6.82-3.41,36.28,36.28,0,0,0-10.22-1.24q-10.71,0-17.29,5.27t-7.21,16h-5.89q.63-13.18,8.45-19.77t22.24-6.59q14.43,0,21,5.66a18.59,18.59,0,0,1,6.58,14.8v46.35c0,1.14,0,2.27.08,3.41a11.73,11.73,0,0,0,.54,3.1,4.76,4.76,0,0,0,1.55,2.25,4.94,4.94,0,0,0,3.11.85,27.1,27.1,0,0,0,4.33-.47v5a18.21,18.21,0,0,1-4.8.62,14.21,14.21,0,0,1-5.66-.92,7.57,7.57,0,0,1-3.18-2.49,9.19,9.19,0,0,1-1.47-3.64,25,25,0,0,1-.39-4.57Zm0-29.46a11.14,11.14,0,0,1-6.58,3.57,82.35,82.35,0,0,1-9.84,1.39l-9.93.93q-4.34.48-8.68,1.32a25.32,25.32,0,0,0-7.82,2.87,16,16,0,0,0-5.66,5.5,16.94,16.94,0,0,0-2.17,9.07q0,8.84,5.58,13.1t15.35,4.26q10.07,0,16-3.64a28.29,28.29,0,0,0,9-8.37,25.67,25.67,0,0,0,4-9.15,38.51,38.51,0,0,0,.85-6Z"/><path class="cls-1" d="M1149.15,68.41h7l29.61,72.7L1213,68.41h6.66l-34.1,88.2q-2.47,5.89-4.57,10.15a17.38,17.38,0,0,1-4.72,6.28,14.51,14.51,0,0,1-7.37,3,93.29,93.29,0,0,1-11.24.54v-5.11a38.18,38.18,0,0,0,9.92-1,15.33,15.33,0,0,0,6.67-4.11,19.77,19.77,0,0,0,3.56-6.27c1.25-3,2.79-7.21,4.65-12.48Z"/><path class="cls-1" d="M1229.59,37.41h5.74v47.9h.31a25.21,25.21,0,0,1,4.81-8.14,30.74,30.74,0,0,1,7.15-5.89,31.94,31.94,0,0,1,8.7-3.56,39.46,39.46,0,0,1,9.64-1.17,35,35,0,0,1,15.3,3.11,30.72,30.72,0,0,1,10.8,8.52,36.31,36.31,0,0,1,6.45,12.63,55.89,55.89,0,0,1,2.09,15.58q0,14.27-3.88,22.86t-9.32,13.18a28.25,28.25,0,0,1-11.35,6,42.88,42.88,0,0,1-10.09,1.48,32.6,32.6,0,0,1-13.45-2.49,33.06,33.06,0,0,1-9.09-5.81,28.66,28.66,0,0,1-5.43-6.58,26.56,26.56,0,0,1-2.33-4.81h-.31v17.82h-5.74Zm36.35,107.42a24.75,24.75,0,0,0,13.37-3.41,27.63,27.63,0,0,0,8.86-8.91,40.24,40.24,0,0,0,5-12.4,62.62,62.62,0,0,0,1.55-13.72,46.23,46.23,0,0,0-1.78-12.86,34.36,34.36,0,0,0-5.44-11.09,28.07,28.07,0,0,0-9-7.83,25.59,25.59,0,0,0-12.51-2.94,32.29,32.29,0,0,0-13.52,2.63,25.72,25.72,0,0,0-9.48,7.29,31.49,31.49,0,0,0-5.59,11,48.62,48.62,0,0,0-1.87,13.8,59.65,59.65,0,0,0,1.71,14.26,37.47,37.47,0,0,0,5.36,12.32,27.66,27.66,0,0,0,9.41,8.6A28,28,0,0,0,1265.94,144.83Z"/><path class="cls-1" d="M1311.28,108.25a52.14,52.14,0,0,1,2.4-16,40.36,40.36,0,0,1,7-13.26,33.46,33.46,0,0,1,11.47-9.06,38.36,38.36,0,0,1,31.31,0A33.46,33.46,0,0,1,1375,79a40.36,40.36,0,0,1,7,13.26,52.44,52.44,0,0,1,2.41,16,53.2,53.2,0,0,1-2.41,16.12,39.25,39.25,0,0,1-7,13.25,33.75,33.75,0,0,1-11.47,9,38.36,38.36,0,0,1-31.31,0,33.75,33.75,0,0,1-11.47-9,39.25,39.25,0,0,1-7-13.25A52.88,52.88,0,0,1,1311.28,108.25Zm5.89,0a46.77,46.77,0,0,0,2,13.72,37.22,37.22,0,0,0,5.89,11.7,28.74,28.74,0,0,0,9.61,8.14,30.25,30.25,0,0,0,26.35,0,28.74,28.74,0,0,0,9.61-8.14,37.22,37.22,0,0,0,5.89-11.7,47.6,47.6,0,0,0,0-27.44,37.22,37.22,0,0,0-5.89-11.7,28.74,28.74,0,0,0-9.61-8.14,30.25,30.25,0,0,0-26.35,0,28.74,28.74,0,0,0-9.61,8.14,37.22,37.22,0,0,0-5.89,11.7A46.81,46.81,0,0,0,1317.17,108.25Z"/><path class="cls-1" d="M1395.13,108.25a52.44,52.44,0,0,1,2.4-16,40.55,40.55,0,0,1,7-13.26,33.55,33.55,0,0,1,11.47-9.06,38.36,38.36,0,0,1,31.31,0A33.36,33.36,0,0,1,1458.83,79a40.57,40.57,0,0,1,7.06,13.26,52.44,52.44,0,0,1,2.4,16,53.19,53.19,0,0,1-2.4,16.12,39.44,39.44,0,0,1-7.06,13.25,33.66,33.66,0,0,1-11.47,9,38.36,38.36,0,0,1-31.31,0,33.85,33.85,0,0,1-11.47-9,39.42,39.42,0,0,1-7-13.25A53.19,53.19,0,0,1,1395.13,108.25Zm5.89,0a46.77,46.77,0,0,0,2,13.72,37.43,37.43,0,0,0,5.89,11.7,28.84,28.84,0,0,0,9.61,8.14,30.25,30.25,0,0,0,26.35,0,28.64,28.64,0,0,0,9.61-8.14,37,37,0,0,0,5.89-11.7,47.6,47.6,0,0,0,0-27.44,37,37,0,0,0-5.89-11.7,28.64,28.64,0,0,0-9.61-8.14,30.25,30.25,0,0,0-26.35,0,28.84,28.84,0,0,0-9.61,8.14,37.43,37.43,0,0,0-5.89,11.7A46.81,46.81,0,0,0,1401,108.25Z"/><path class="cls-1" d="M1483,37.41h5.89v73.32L1538,68.41h8.52l-34.87,29.76L1549,148.08H1541L1507,102.67,1488.9,118v30.07H1483Z"/><path class="cls-1" d="M45.33,109.39H63.05c28.21,0,32.35-22.85,32.35-36.66,0-9.26-2.88-35-35.63-35H45.34v71.68ZM0,0H74.41c49,0,66.32,36.28,66.3,73.36,0,45.1-23.92,73.73-75.21,73.71H0L0,0Z"/><path class="cls-1" d="M214.21,99.14a70,70,0,0,1-16.07,5.14c-9.06,2-13.8,4.33-13.8,11.53,0,4.93,5.35,9.87,12.77,9.88,9.27,0,16.48-5.55,17.09-16.67V99.14Zm39.13,24.11c0,8,.41,17.1,4.93,23.89h-41.6a28.49,28.49,0,0,1-1.44-10.1h-.41c-8.66,9.9-21.22,12.76-34.4,12.76-20.6,0-37.7-9.89-37.69-32.36,0-33.76,39.55-32.52,60.36-36.41,5.57-1,11.13-2.68,11.13-9.48,0-7.21-6.8-9.89-13.39-9.89-12.56,0-15,6.37-15.24,10.91l-37.91,0c.63-15,8-23.88,18.56-28.82,10.29-4.95,23.89-6.17,36.45-6.17,51.09,0,50.66,21.22,50.66,41.82v43.88Z"/><path class="cls-1" d="M317.75,40.25l21.83,0V65.39H317.73v37.28c0,9.89,2.27,14.21,12.57,14.21a70.13,70.13,0,0,0,9.26-.61v30.9c-8.24,0-17.5,1.23-26.15,1.23-17.31,0-36.46-2.69-36.46-31.95l0-51.07H258.83V40.23l18.13,0V7.7h40.79V40.25Z"/><path class="cls-1" d="M417.2,99.19c-4.94,2.48-10.51,3.91-16.07,5.14-9.07,2.06-13.8,4.33-13.8,11.54,0,4.94,5.35,9.89,12.77,9.89,9.27,0,16.48-5.56,17.09-16.69V99.19Zm39.13,24.11c0,8,.41,17.09,4.95,23.9l-41.62,0a28.89,28.89,0,0,1-1.44-10.09h-.4c-8.67,9.89-21.22,12.78-34.41,12.77-20.6,0-37.69-9.91-37.69-32.36,0-33.77,39.57-32.52,60.36-36.44,5.58-1,11.12-2.67,11.12-9.47,0-7.2-6.79-9.89-13.38-9.89-12.56,0-15,6.39-15.24,10.91h-37.9c.61-15,8-23.9,18.55-28.84,10.29-5,23.89-6.18,36.46-6.16,51.07,0,50.65,21.23,50.64,41.82V123.3Z"/><polygon class="cls-1" points="471.76 0.14 517.09 0.14 517.08 50.82 517.49 50.82 557.88 0.15 613.69 0.17 560.33 57.63 622.29 147.25 565.87 147.23 529.62 89.97 517.06 103.76 517.03 147.23 471.72 147.21 471.76 0.14 471.76 0.14"/><path class="cls-1" d="M624.17,40.34H665v106.9h-40.8l0-106.9ZM665,28.82l-40.79,0V.16L665,.19V28.82Z"/><path class="cls-1" d="M680.61,40.36h39.33V54h.41C728,43.26,738.9,37.7,755.17,37.71c19.15,0,36.67,11.75,36.67,36.25l0,73.34-40.79,0,0-56c0-12.36-1.43-21-13.39-21-7,0-16.27,3.51-16.27,20.61l0,56.43H680.57l0-106.91Z"/><path class="cls-1" d="M858.3,67.39c-14.61,0-17.89,13.83-17.87,26.38,0,12.78,3.32,26.57,18,26.56s17.89-13.82,17.89-26.59c0-12.57-3.35-26.37-18-26.35Zm57.38,79.85-39.36,0V135.54h-.42C870.76,142.35,864.6,150,844.6,150c-30.28,0-44.91-29.81-45-56.58,0-25.14,9.63-55.62,45.46-55.68,12.17,0,23.08,5.34,29.29,14.38h.41L874.71.21l40.79,0,.18,147.08Z"/><path class="cls-1" d="M918.94,7.52a12.22,12.22,0,0,1,2.67-3.85,12.49,12.49,0,0,1,3.93-2.57,12.65,12.65,0,0,1,9.52,0,12.15,12.15,0,0,1,6.55,6.42,11.76,11.76,0,0,1,1,4.82,11.93,11.93,0,0,1-1,4.9,12.54,12.54,0,0,1-2.65,3.9,11.92,11.92,0,0,1-3.9,2.57,12.8,12.8,0,0,1-9.53,0,11.9,11.9,0,0,1-3.92-2.57,12.13,12.13,0,0,1-3.66-8.8A11.92,11.92,0,0,1,918.94,7.52Zm2,9a10.25,10.25,0,0,0,2.13,3.33,10,10,0,0,0,7.23,3,9.87,9.87,0,0,0,7.16-3,10.11,10.11,0,0,0,2.14-3.33,11.27,11.27,0,0,0,.77-4.18,10.81,10.81,0,0,0-.77-4.09,10,10,0,0,0-5.33-5.5,9.86,9.86,0,0,0-4-.77,10,10,0,0,0-4,.77A9.89,9.89,0,0,0,921,8.25a10.81,10.81,0,0,0-.77,4.09,11.27,11.27,0,0,0,.77,4.18ZM931.07,5.23a5.87,5.87,0,0,1,3.79,1,3.78,3.78,0,0,1,1.22,3.08A3.51,3.51,0,0,1,935,12.16a4.9,4.9,0,0,1-2.69,1.07l4.1,6.32H934l-3.9-6.16h-2.37v6.16h-2.23V5.23Zm-1,6.34a10.86,10.86,0,0,0,1.42-.06,3.34,3.34,0,0,0,1.2-.28,1.9,1.9,0,0,0,.84-.7,2.44,2.44,0,0,0,.3-1.33,2.1,2.1,0,0,0-.27-1.15,2.07,2.07,0,0,0-.73-.65,3.26,3.26,0,0,0-1-.31A8.47,8.47,0,0,0,930.67,7h-2.92v4.56Z"/></g></g></svg>